<?xml version="1.0" encoding="UTF-8" standalone="no"?>
<svg width="56px" height="56px" viewBox="0 0 56 56" version="1.1" xmlns="http://www.w3.org/2000/svg" xmlns:xlink="http://www.w3.org/1999/xlink">
    <!-- Generator: Sketch 46.2 (44496) - http://www.bohemiancoding.com/sketch -->
    <title>AAPL</title>
    <desc>Created with Sketch.</desc>
    <defs/>
    <g id="Page-1" stroke="none" stroke-width="1" fill="none" fill-rule="evenodd">
        <g id="Apple">
            <g id="AAPL">
                <rect id="Rectangle-1" fill="#3F444E" x="0" y="0" width="56" height="56" rx="28"/>
                <g id="Group-7" transform="translate(13.000000, 9.000000)" fill="#FFFFFF">
                    <path d="M26.9647574,11.64467 C24.9619323,8.72460149 21.8576198,8.32562708 20.7667362,8.29381516 C18.1594848,8.01943741 15.6304377,9.85392442 14.3022903,9.85392442 C12.947633,9.85392442 10.9023921,8.32032509 8.69809157,8.36539197 C5.86152928,8.40913335 3.2078855,10.0514234 1.75249046,12.6016784 C-1.25108437,17.8016008 0.989004536,25.4430875 3.86665721,29.6462366 C5.30614629,31.7047325 6.98820122,34.0031432 9.18985073,33.9209625 C11.3437824,33.8334797 12.1483587,32.5490737 14.7476571,32.5490737 C17.3230966,32.5490737 18.0786295,33.9209625 20.3240204,33.8692681 C22.6356862,33.8334797 24.0910812,31.8028192 25.4802014,29.7244409 C27.1436994,27.3663828 27.8117496,25.0414621 27.8382595,24.9221674 C27.7852396,24.904936 23.3501287,23.2109516 23.3050618,18.0918845 C23.2666224,13.8198096 26.8030468,11.7414313 26.9647574,11.64467 Z" id="Fill-6"/>
                    <path d="M17.5869207,5.52882969 C18.7454045,4.08006213 19.5380514,2.10904899 19.318019,0.108874931 C17.641266,0.183102729 15.5443307,1.26868428 14.3368035,2.68563992 C13.2684534,3.93425752 12.314096,5.98082396 12.5606383,7.90544472 C14.4441687,8.04594734 16.378068,6.95506381 17.5869207,5.52882969" id="Fill-8"/>
                </g>
            </g>
        </g>
    </g>
</svg>