<?xml version="1.0" encoding="UTF-8" standalone="no"?>
<svg width="56px" height="56px" viewBox="0 0 56 56" version="1.1" xmlns="http://www.w3.org/2000/svg" xmlns:xlink="http://www.w3.org/1999/xlink">
    <!-- Generator: Sketch 46.2 (44496) - http://www.bohemiancoding.com/sketch -->
    <title>AMZN</title>
    <desc>Created with Sketch.</desc>
    <defs/>
    <g id="Page-1" stroke="none" stroke-width="1" fill="none" fill-rule="evenodd">
        <g id="Amazon">
            <g id="AMZN">
                <rect id="Rectangle-1" fill="#212121" x="0" y="0" width="56" height="56" rx="28"/>
                <g id="Group" transform="translate(9.000000, 12.000000)">
                    <path d="M12.5122765,1.38989262 C15.0126657,0.0754930013 17.9675399,-0.233268271 20.7377345,0.157733153 C22.8442367,0.467937235 25.0286505,1.31486652 26.321408,3.09096524 C27.3227179,4.43133543 27.5333681,6.16270705 27.5809809,7.78586794 C27.5809809,10.9629349 27.5809809,14.138559 27.5809809,17.3156259 C27.5824237,18.2563378 27.837801,19.1999353 28.3427844,19.9963663 C28.6501028,20.5316487 29.0800601,20.9846909 29.3989211,21.5127593 C29.6066856,21.8503767 29.5893719,22.3495889 29.240212,22.5862097 C28.1205917,23.5399069 27.0096282,24.5022609 25.9015504,25.4689434 C25.548062,25.8440739 24.8785983,25.8989007 24.509239,25.5179989 C23.7604208,24.8701774 23.0635437,24.1516582 22.5340326,23.3076145 C22.3767663,23.1041783 22.2829837,22.8372585 22.0752191,22.6814351 C21.1171935,23.5961764 20.127426,24.5296743 18.9125803,25.1010269 C18.012267,25.5699401 17.0037431,25.7748191 16.003876,25.8830298 C14.4023572,26.0013402 12.7157127,25.9652699 11.2512609,25.229437 C9.77959499,24.5368884 8.66430311,23.197961 8.17663344,21.6541546 C7.53746875,19.5923796 7.60960923,17.2867697 8.49982281,15.3086776 C9.423221,13.2685447 11.3320582,11.8069785 13.4313463,11.1274152 C15.9288499,10.3078993 18.5764056,10.1621755 21.1720202,9.87649917 C21.1215219,8.47841659 21.4259547,6.84659884 20.4044455,5.708222 C18.6802879,4.0388912 15.2319728,4.77616695 14.5293245,7.13804639 C14.4182281,7.67188598 14.2119063,8.34279248 13.5655276,8.40050487 C12.129932,8.17542656 10.674137,8.0773155 9.23132732,7.89263586 C8.82445498,7.85800843 8.44932447,7.48720634 8.52290776,7.06157748 C8.85186837,4.67661308 10.3725898,2.50229889 12.5122765,1.38989262 Z M16.2722386,14.5136895 C15.3199842,15.0634 14.6418636,16.0574958 14.4918114,17.1468172 C14.3085746,18.2447953 14.4038,19.4783976 15.0934631,20.3931389 C15.7470558,21.2775813 16.989315,21.567586 18.0137098,21.2530535 C19.2833824,20.8937939 20.1937953,19.7813876 20.6728081,18.5968409 C21.3566999,16.9837797 21.128736,15.1961385 21.1676918,13.4921802 C19.5041323,13.5556639 17.7381332,13.6321328 16.2722386,14.5136895 L16.2722386,14.5136895 Z" id="Fill-2" fill="#FFFFFF"/>
                    <path d="M30.6251051,24.3744576 C32.1313984,23.3572768 34.0387928,23.1466266 35.8091203,23.3197638 C36.2809191,23.3933471 36.781574,23.4582735 37.1870036,23.7295217 C37.4625802,24.1205231 37.350041,24.6413774 37.3327273,25.0900912 C37.0903353,26.8835037 36.3761445,28.6913442 35.0300031,29.943703 C34.8453234,30.1240542 34.4831782,30.3664462 34.333126,30.0172863 C34.7933823,28.6769161 35.4109048,27.3711733 35.5941417,25.9528914 C35.6504112,25.56189 35.607127,25.0294932 35.1526419,24.9068544 C33.5785365,24.4465981 31.9423904,24.9645668 30.3466428,24.9140685 C30.3610709,24.6990898 30.4144549,24.4783399 30.6251051,24.3744576 Z M0.251075692,24.0050984 C0.416998806,23.9747994 0.564165393,24.0700248 0.705560742,24.1436081 C9.2239091,29.0506038 19.7636338,30.3361472 29.1938379,27.5241112 C30.4880382,27.1475378 31.7620391,26.7031525 33.0028555,26.1750841 C33.2784321,26.0510025 33.6420202,25.9442346 33.8945119,26.1779697 C34.2047159,26.4117049 34.0777487,26.9138027 33.7588877,27.0811686 C31.4114364,28.8125402 28.6830833,29.9711164 25.8768185,30.7314771 C21.4185365,31.9492085 16.6558218,32.0372199 12.158584,30.9608838 C7.72338704,29.9148468 3.56665234,27.7246617 0.191920495,24.6630196 C-0.0620140087,24.5115246 -0.0850989636,24.0440542 0.251075692,24.0050984 L0.251075692,24.0050984 Z" id="Fill-3" fill="#F8981D"/>
                </g>
            </g>
        </g>
    </g>
</svg>