<?xml version="1.0" encoding="UTF-8" standalone="no"?>
<svg width="56px" height="56px" viewBox="0 0 56 56" version="1.1" xmlns="http://www.w3.org/2000/svg" xmlns:xlink="http://www.w3.org/1999/xlink">
    <!-- Generator: Sketch 46.2 (44496) - http://www.bohemiancoding.com/sketch -->
    <title>EURGBP</title>
    <desc>Created with Sketch.</desc>
    <defs>
        <path d="M11.25,8.4375 L22.5,8.4375 L22.5,16.875 L11.25,8.4375 Z M11.25,8.4375 L11.25,16.875 L0,16.875 L11.25,8.4375 Z M11.25,8.4375 L0,8.4375 L0,0 L11.25,8.4375 Z M11.25,8.4375 L11.25,0 L22.5,0 L11.25,8.4375 Z" id="path-1"/>
    </defs>
    <g id="Page-1" stroke="none" stroke-width="1" fill="none" fill-rule="evenodd">
        <g id="EUR/GBP">
            <g id="EURGBP">
                <rect id="Rectangle-24-Copy" fill="#FFFFFF" x="-3.55271368e-15" y="0" width="56" height="56" rx="28"/>
                <g id="Group-15" transform="translate(10.000000, 15.625000)">
                    <g id="Group">
                        <rect id="Rectangle-112" fill="#2355E9" x="0" y="0" width="22.5" height="16.875"/>
                        <path d="M11.4988082,2 L11.7065249,2.62833048 L12.3647484,2.63312689 L11.8352411,3.026433 L12.0341043,3.65750428 L11.4988082,3.27207801 L10.9635121,3.65750428 L11.1623753,3.026433 L10.6325274,2.63312689 L11.290751,2.62833048 L11.4988082,2 Z M8.69361134,12.5894584 L8.90132802,13.2177889 L9.55955156,13.2222427 L9.02970375,13.6155488 L9.22856694,14.2469627 L8.69361134,13.8615364 L8.1579747,14.2469627 L8.35717841,13.6155488 L7.82733059,13.2222427 L8.48555413,13.2177889 L8.69361134,12.5894584 Z M6.62938418,10.5139808 L6.83710087,11.1423112 L7.49600545,11.1467651 L6.96581712,11.5400712 L7.1646803,12.1711424 L6.62938418,11.7857162 L6.09408806,12.1711424 L6.29295125,11.5400712 L5.76344396,11.1467651 L6.4216675,11.1423112 L6.62938418,10.5139808 Z M5.86628074,7.67381737 L6.07399743,8.30249045 L6.73222097,8.30728686 L6.20271368,8.70025036 L6.40191738,9.33132165 L5.86628074,8.94589537 L5.33132514,9.33132165 L5.53018833,8.70025036 L5,8.30728686 L5.65856406,8.30249045 L5.86628074,7.67381737 Z M6.62938418,4.83707998 L6.83710087,5.46541046 L7.49600545,5.47020688 L6.96581712,5.86317038 L7.1646803,6.49458427 L6.62938418,6.10950059 L6.09408806,6.49458427 L6.29295125,5.86317038 L5.76344396,5.47020688 L6.4216675,5.46541046 L6.62938418,4.83707998 Z M8.69156822,2.75920411 L8.89962543,3.38753459 L9.55784897,3.39233101 L9.02800115,3.78529451 L9.22686434,4.41670839 L8.69156822,4.03128212 L8.1562721,4.41670839 L8.35547581,3.78529451 L7.82528748,3.39233101 L8.48385153,3.38753459 L8.69156822,2.75920411 Z M14.3227336,2.76297272 L14.5307908,3.3913032 L15.1890143,3.39609962 L14.659507,3.78906312 L14.8580297,4.42047701 L14.3227336,4.03505073 L13.787778,4.42047701 L13.9863007,3.78906312 L13.4567934,3.39609962 L14.1150169,3.3913032 L14.3227336,2.76297272 Z M16.3791288,4.83331137 L16.587186,5.46198445 L17.2454095,5.46643827 L16.7155617,5.85940177 L16.9144249,6.49081565 L16.3791288,6.10538938 L15.8438327,6.49081565 L16.0430364,5.85940177 L15.5135291,5.46643827 L16.1714121,5.46198445 L16.3791288,4.83331137 Z M17.1337193,7.67039136 L17.3417765,8.29872183 L18,8.30317565 L17.4701522,8.69613915 L17.6693559,9.32789564 L17.1337193,8.94246936 L16.5984231,9.32789564 L16.7972863,8.69613915 L16.2674385,8.30317565 L16.925662,8.29872183 L17.1337193,7.67039136 Z M16.3845771,10.5006193 L16.5922938,11.1289498 L17.2505173,11.1337462 L16.7206695,11.5267097 L16.9198732,12.157781 L16.3845771,11.7723547 L15.849281,12.157781 L16.0481442,11.5267097 L15.5182964,11.1337462 L16.1768604,11.1289498 L16.3845771,10.5006193 Z M14.3213715,12.5774674 L14.5290882,13.2057979 L15.1873117,13.2105943 L14.6574639,13.6035578 L14.8566676,14.2349717 L14.3213715,13.8495454 L13.7860754,14.2349717 L13.9849386,13.6035578 L13.4550908,13.2105943 L14.1133143,13.2057979 L14.3213715,12.5774674 Z M11.4988082,13.3421531 L11.7065249,13.9708262 L12.3647484,13.9756226 L11.8352411,14.3685861 L12.0341043,15 L11.4988082,14.6142311 L10.9635121,15 L11.1623753,14.3685861 L10.6325274,13.9756226 L11.290751,13.9708262 L11.4988082,13.3421531 L11.4988082,13.3421531 Z" id="Fill-5795" fill="#FFDE27"/>
                    </g>
                    <g id="Group-6" transform="translate(11.250000, 5.062500)" fill="#000000">
                        <path d="M1.125,4.13050599 C1.125,2.47061086 2.46952183,1.125 4.1217378,1.125 L11.25,1.125 L11.25,11.8125 L1.125,11.8125 L1.125,4.13050599 Z" id="Rectangle-121" opacity="0.149999991"/>
                        <path d="M0,2.99606294 C0,1.34138307 1.33470073,0 3.00001518,0 L11.25,0 L11.25,11.8125 L0,11.8125 L0,2.99606294 Z" id="Rectangle-121-Copy" opacity="0.200000003"/>
                    </g>
                    <g id="Group-5" transform="translate(13.500000, 7.875000)" stroke="#000000" stroke-opacity="0.16" stroke-width="2">
                        <rect id="Rectangle-112-Copy-8" x="1" y="1" width="20.5" height="14.875"/>
                    </g>
                    <g id="Group-13" transform="translate(13.496582, 7.296143)">
                        <rect id="Rectangle-112" fill="#002B97" x="0" y="0.5625" width="22.5" height="16.875"/>
                        <polygon id="Shape" fill="#002B97" points="3.31875135e-07 0.5625 3.31875135e-07 17.4375 22.5000003 17.4375 22.5000003 0.5625"/>
                        <path d="M0.0186879565,2.25 L21.8250003,18.3375 L23.1750003,16.5375 L2.25,0.537583167 L0.0186879565,0.537583167 L0.0186879565,2.25 Z M20.8125,0.537583167 L0,16.3125 L0.0101968982,17.4510954 L1.6875,17.4510954 L22.5,1.6875 L22.523467,0.593788903 L20.8125,0.537583167 Z" id="Shape" fill="#FFFFFF" fill-rule="nonzero"/>
                        <g id="Clipped" transform="translate(0.000000, 0.562500)">
                            <mask id="mask-2" fill="white">
                                <use xlink:href="#path-1"/>
                            </mask>
                            <g id="Shape"/>
                            <path d="M-0.45,0.6 L22.05,17.475 L22.95,16.275 L0.45,-0.6 L-0.45,0.6 Z M22.05,-0.6 L-0.45,16.275 L0.45,17.475 L22.95,0.6 L22.05,-0.6 Z" id="Shape" fill="#CF142B" fill-rule="nonzero" mask="url(#mask-2)"/>
                        </g>
                        <path d="M9.37500033,0.5625 L9.37500033,17.4375 L13.1250003,17.4375 L13.1250003,0.5625 L9.37500033,0.5625 Z M3.31875135e-07,10.875 L22.5000003,10.875 L22.5000003,7.125 L3.31875135e-07,7.125 L3.31875135e-07,10.875 Z" id="Shape" fill="#FFFFFF" fill-rule="nonzero"/>
                        <path d="M10.1250003,0.5625 L10.1250003,17.4375 L12.3750003,17.4375 L12.3750003,0.5625 L10.1250003,0.5625 Z M3.31875135e-07,10.125 L22.5000003,10.125 L22.5000003,7.875 L3.31875135e-07,7.875 L3.31875135e-07,10.125 Z" id="Shape" fill="#CF142B" fill-rule="nonzero"/>
                    </g>
                </g>
            </g>
        </g>
    </g>
</svg>