<?xml version="1.0" encoding="UTF-8" standalone="no"?>
<svg width="56px" height="56px" viewBox="0 0 56 56" version="1.1" xmlns="http://www.w3.org/2000/svg" xmlns:xlink="http://www.w3.org/1999/xlink">
    <!-- Generator: Sketch 46.2 (44496) - http://www.bohemiancoding.com/sketch -->
    <title>FB</title>
    <desc>Created with Sketch.</desc>
    <defs/>
    <g id="Page-1" stroke="none" stroke-width="1" fill="none" fill-rule="evenodd">
        <g id="Facebook">
            <g id="FB">
                <rect id="Rectangle-1" fill="#FFFFFF" x="0" y="0" width="56" height="56" rx="28"/>
                <path d="M36.1331701,54.8004888 L36.4545299,35.0138242 L42.2458513,35.0138242 L43.1128886,28.2898618 L36.4545299,28.2898618 L36.4545299,23.9970759 C36.4545299,22.050165 36.9952179,20.7235679 39.7869644,20.7235679 L43.347426,20.7218986 L43.347426,14.7082257 C42.7314523,14.6262628 40.6179446,14.4433069 38.1590577,14.4433069 C33.0256095,14.4433069 29.5110538,17.5767602 29.5110538,23.33119 L29.5110538,28.2898618 L23.7050425,28.2898618 L23.7050425,35.0138242 L29.5110538,35.0138242 L29.1706028,55.9759736 C28.7823969,55.9919388 28.3921398,56 28,56 C12.536027,56 0,43.463973 0,28 C0,12.536027 12.536027,0 28,0 C43.463973,0 56,12.536027 56,28 C56,40.6353503 47.6306384,51.3159315 36.1331701,54.8004888 Z" id="Combined-Shape" fill="#3C5A99"/>
            </g>
        </g>
    </g>
</svg>