<?xml version="1.0" encoding="UTF-8" standalone="no"?>
<svg width="56px" height="56px" viewBox="0 0 56 56" version="1.1" xmlns="http://www.w3.org/2000/svg" xmlns:xlink="http://www.w3.org/1999/xlink">
    <!-- Generator: Sketch 46.2 (44496) - http://www.bohemiancoding.com/sketch -->
    <title>GOOG</title>
    <desc>Created with Sketch.</desc>
    <defs/>
    <g id="Page-1" stroke="none" stroke-width="1" fill="none" fill-rule="evenodd">
        <g id="Alphabet">
            <g id="GOOG">
                <rect id="Rectangle-1" fill="#FFFFFF" x="0" y="0" width="56" height="56" rx="28"/>
                <g id="Group" transform="translate(8.000000, 8.000000)">
                    <path d="M39.9809375,20.3741985 C39.9809375,18.7354198 39.8448438,17.539542 39.5503125,16.2993893 L20.3984375,16.2993893 L20.3984375,23.6960305 L31.6401563,23.6960305 C31.4135938,25.5341985 30.1896875,28.3024427 27.4698438,30.1625954 L27.4317188,30.410229 L33.4871875,34.9938931 L33.9067188,35.0348092 C37.7596875,31.5578626 39.9809375,26.4421374 39.9809375,20.3741985" id="Shape" fill="#4285F4"/>
                    <path d="M20.3984375,39.8625954 C25.9059375,39.8625954 30.5295313,38.0908397 33.9067188,35.0348092 L27.4698438,30.1625954 C25.7473438,31.3363359 23.4354688,32.1557252 20.3984375,32.1557252 C15.0042188,32.1557252 10.4259375,28.6789313 8.79390625,23.8732824 L8.5546875,23.8931298 L2.258125,28.6545038 L2.17578125,28.8781679 C5.53015625,35.3890076 12.4203125,39.8625954 20.3984375,39.8625954" id="Shape" fill="#34A853"/>
                    <path d="M8.79390625,23.8732824 C8.36328125,22.6331298 8.1140625,21.3042748 8.1140625,19.9312977 C8.1140625,18.5581679 8.36328125,17.2294656 8.77125,15.989313 L8.75984375,15.7251908 L2.384375,10.8873282 L2.17578125,10.9842748 C0.79328125,13.6861069 0,16.7201527 0,19.9312977 C0,23.1424427 0.79328125,26.1763359 2.17578125,28.8781679 L8.79390625,23.8732824" id="Shape" fill="#FBBC05"/>
                    <path d="M20.3984375,7.70671756 C24.22875,7.70671756 26.8125,9.32335878 28.2857813,10.6743511 L34.0426563,5.1821374 C30.5070313,1.97099237 25.9059375,0 20.3984375,0 C12.4203125,0 5.53015625,4.47343511 2.17578125,10.9842748 L8.77125,15.989313 C10.4259375,11.1836641 15.0042188,7.70671756 20.3984375,7.70671756" id="Shape" fill="#EB4335"/>
                </g>
            </g>
        </g>
    </g>
</svg>